<svg width="500" height="375" viewBox="0 0 500 375" fill="none" xmlns="http://www.w3.org/2000/svg">
  <!-- Background -->
  <rect width="500" height="375" fill="url(#bgGradient)"/>
  
  <!-- Main poll container -->
  <rect x="50" y="50" width="400" height="275" rx="24" fill="url(#cardGradient)" stroke="url(#borderGradient)" stroke-width="1"/>
  
  <!-- Header -->
  <rect x="70" y="70" width="360" height="40" rx="12" fill="url(#headerGradient)"/>
  <circle cx="90" cy="90" r="8" fill="#3b82f6"/>
  <rect x="110" y="85" width="120" height="6" rx="3" fill="rgba(59, 130, 246, 0.8)"/>
  <rect x="110" y="95" width="80" height="4" rx="2" fill="rgba(59, 130, 246, 0.5)"/>
  
  <!-- Poll options with animated bars -->
  <g id="pollBars">
    <!-- Option 1 -->
    <rect x="70" y="140" width="20" height="8" rx="4" fill="#e5e7eb"/>
    <rect x="100" y="138" width="180" height="12" rx="6" fill="#f3f4f6"/>
    <rect x="100" y="138" width="140" height="12" rx="6" fill="url(#bar1Gradient)">
      <animate attributeName="width" values="0;140;140" dur="2s" begin="0s"/>
    </rect>
    <text x="290" y="148" font-family="Inter, sans-serif" font-size="12" font-weight="600" fill="#374151">42%</text>
    
    <!-- Option 2 -->
    <rect x="70" y="170" width="20" height="8" rx="4" fill="#e5e7eb"/>
    <rect x="100" y="168" width="180" height="12" rx="6" fill="#f3f4f6"/>
    <rect x="100" y="168" width="108" height="12" rx="6" fill="url(#bar2Gradient)">
      <animate attributeName="width" values="0;108;108" dur="2s" begin="0.3s"/>
    </rect>
    <text x="290" y="178" font-family="Inter, sans-serif" font-size="12" font-weight="600" fill="#374151">32%</text>
    
    <!-- Option 3 -->
    <rect x="70" y="200" width="20" height="8" rx="4" fill="#e5e7eb"/>
    <rect x="100" y="198" width="180" height="12" rx="6" fill="#f3f4f6"/>
    <rect x="100" y="198" width="70" height="12" rx="6" fill="url(#bar3Gradient)">
      <animate attributeName="width" values="0;70;70" dur="2s" begin="0.6s"/>
    </rect>
    <text x="290" y="208" font-family="Inter, sans-serif" font-size="12" font-weight="600" fill="#374151">21%</text>
    
    <!-- Option 4 -->
    <rect x="70" y="230" width="20" height="8" rx="4" fill="#e5e7eb"/>
    <rect x="100" y="228" width="180" height="12" rx="6" fill="#f3f4f6"/>
    <rect x="100" y="228" width="18" height="12" rx="6" fill="url(#bar4Gradient)">
      <animate attributeName="width" values="0;18;18" dur="2s" begin="0.9s"/>
    </rect>
    <text x="290" y="238" font-family="Inter, sans-serif" font-size="12" font-weight="600" fill="#374151">5%</text>
  </g>
  
  <!-- Floating elements -->
  <circle cx="420" cy="80" r="4" fill="#3b82f6" opacity="0.6">
    <animate attributeName="cy" values="80;70;80" dur="3s" repeatCount="indefinite"/>
  </circle>
  <circle cx="450" cy="120" r="3" fill="#10b981" opacity="0.6">
    <animate attributeName="cy" values="120;110;120" dur="2.5s" repeatCount="indefinite"/>
  </circle>
  <circle cx="380" cy="280" r="2" fill="#f59e0b" opacity="0.6">
    <animate attributeName="cy" values="280;270;280" dur="2s" repeatCount="indefinite"/>
  </circle>
  
  <!-- Vote count indicator -->
  <rect x="320" y="280" width="100" height="30" rx="15" fill="url(#counterGradient)"/>
  <text x="370" y="292" font-family="Inter, sans-serif" font-size="8" font-weight="500" fill="#6b7280" text-anchor="middle">Total Votes</text>
  <text x="370" y="304" font-family="Inter, sans-serif" font-size="14" font-weight="700" fill="#1f2937" text-anchor="middle">1,247</text>
  
  <!-- Gradients -->
  <defs>
    <linearGradient id="bgGradient" x1="0%" y1="0%" x2="100%" y2="100%">
      <stop offset="0%" style="stop-color:#f8fafc;stop-opacity:1" />
      <stop offset="100%" style="stop-color:#e2e8f0;stop-opacity:1" />
    </linearGradient>
    
    <linearGradient id="cardGradient" x1="0%" y1="0%" x2="100%" y2="100%">
      <stop offset="0%" style="stop-color:#ffffff;stop-opacity:1" />
      <stop offset="100%" style="stop-color:#f8fafc;stop-opacity:1" />
    </linearGradient>
    
    <linearGradient id="borderGradient" x1="0%" y1="0%" x2="100%" y2="100%">
      <stop offset="0%" style="stop-color:#e2e8f0;stop-opacity:1" />
      <stop offset="100%" style="stop-color:#cbd5e1;stop-opacity:1" />
    </linearGradient>
    
    <linearGradient id="headerGradient" x1="0%" y1="0%" x2="100%" y2="0%">
      <stop offset="0%" style="stop-color:#dbeafe;stop-opacity:1" />
      <stop offset="100%" style="stop-color:#eff6ff;stop-opacity:1" />
    </linearGradient>
    
    <linearGradient id="bar1Gradient" x1="0%" y1="0%" x2="100%" y2="0%">
      <stop offset="0%" style="stop-color:#3b82f6;stop-opacity:1" />
      <stop offset="100%" style="stop-color:#1d4ed8;stop-opacity:1" />
    </linearGradient>
    
    <linearGradient id="bar2Gradient" x1="0%" y1="0%" x2="100%" y2="0%">
      <stop offset="0%" style="stop-color:#10b981;stop-opacity:1" />
      <stop offset="100%" style="stop-color:#047857;stop-opacity:1" />
    </linearGradient>
    
    <linearGradient id="bar3Gradient" x1="0%" y1="0%" x2="100%" y2="0%">
      <stop offset="0%" style="stop-color:#f59e0b;stop-opacity:1" />
      <stop offset="100%" style="stop-color:#d97706;stop-opacity:1" />
    </linearGradient>
    
    <linearGradient id="bar4Gradient" x1="0%" y1="0%" x2="100%" y2="0%">
      <stop offset="0%" style="stop-color:#ef4444;stop-opacity:1" />
      <stop offset="100%" style="stop-color:#dc2626;stop-opacity:1" />
    </linearGradient>
    
    <linearGradient id="counterGradient" x1="0%" y1="0%" x2="100%" y2="100%">
      <stop offset="0%" style="stop-color:#ffffff;stop-opacity:1" />
      <stop offset="100%" style="stop-color:#f1f5f9;stop-opacity:1" />
    </linearGradient>
  </defs>
</svg>
